<?xml version="1.0" encoding="UTF-8"?>
<!-- Generator: visioncortex VTracer 0.6.12 -->
<svg version="1.1" xmlns="http://www.w3.org/2000/svg" width="225" height="225">
<path d="M0 0 C0.66 0 1.32 0 2 0 C1.67 5.94 1.34 11.88 1 18 C6.937 12 6.937 12 8.808 10.102 C10.187 8.716 11.593 7.357 13 6 C13.33 6 13.66 6 14 6 C13.67 11.94 13.34 17.88 13 24 C11.68 24 10.36 24 9 24 C8.835 24.495 8.835 24.495 8 27 C7.34 27 6.68 27 6 27 C6 27.66 6 28.32 6 29 C4 30.625 4 30.625 2 32 C2 31.34 2 30.68 2 30 C1.34 30 0.68 30 0 30 C0.062 30.763 0.124 31.526 0.188 32.312 C0 35 0 35 -1.5 36.812 C-1.995 37.204 -2.49 37.596 -3 38 C-2.01 39.32 -1.02 40.64 0 42 C-0.33 42.66 -0.66 43.32 -1 44 C-2.65 43.67 -4.3 43.34 -6 43 C-5.67 42.34 -5.34 41.68 -5 41 C-4.01 41.66 -3.02 42.32 -2 43 C-2.33 42.34 -2.66 41.68 -3 41 C-5.562 40.375 -5.562 40.375 -8 40 C-8 39.01 -8 38.02 -8 37 C-8.66 37 -9.32 37 -10 37 C-10.236 37.562 -10.472 38.124 -10.715 38.703 C-12.298 41.533 -14.252 43.48 -16.562 45.75 C-17.368 46.549 -18.174 47.348 -19.004 48.172 C-21 50 -21 50 -22 50 C-21.856 48.333 -21.71 46.667 -21.562 45 C-21.48 43.997 -21.398 42.994 -21.312 41.961 C-21.047 39.443 -20.592 37.094 -20.062 34.625 C-20 31 -20 31 -22.688 28.062 C-25.368 26.394 -26.964 25.434 -30 25 C-30.66 24.67 -31.32 24.34 -32 24 C-32 23.34 -32 22.68 -32 22 C-31.31 22.072 -30.621 22.144 -29.91 22.219 C-23.904 22.812 -18.034 23.099 -12 23 C-12.276 22.887 -12.276 22.887 -13.672 22.316 C-16.7 20.604 -18.813 18.413 -21.25 15.938 C-21.696 15.488 -21.696 15.488 -23.953 13.215 C-26 11 -26 11 -26 10 C-19.31 10.524 -12.651 11.105 -6 12 C-5.732 11.381 -5.464 10.762 -5.188 10.125 C-4 8 -4 8 -1 6 C-0.312 2.875 -0.312 2.875 0 0 Z M11 10 C10.67 10.66 10.34 11.32 10 12 C10.938 14.125 10.938 14.125 12 16 C12 14.02 12 12.04 12 10 C11.67 10 11.34 10 11 10 Z M-2 11 C-2 13.97 -2 16.94 -2 20 C-1.67 20 -1.34 20 -1 20 C-1 17.03 -1 14.06 -1 11 C-1.33 11 -1.66 11 -2 11 Z M-22 12 C-21.34 12.66 -20.68 13.32 -20 14 C-18.68 13.34 -17.36 12.68 -16 12 C-17.98 12 -19.96 12 -22 12 Z M-14 13 C-14 13.33 -14 13.66 -14 14 C-12.35 14 -10.7 14 -9 14 C-9 13.67 -9 13.34 -9 13 C-10.65 13 -12.3 13 -14 13 Z M10 18 C10 19.65 10 21.3 10 23 C10.33 23 10.66 23 11 23 C11 21.35 11 19.7 11 18 C10.67 18 10.34 18 10 18 Z M-2 21 C-1.67 21.99 -1.34 22.98 -1 24 C-1 23.01 -1 22.02 -1 21 C-1.33 21 -1.66 21 -2 21 Z M-10 24 C-10 24.66 -10 25.32 -10 26 C-9.34 25.67 -8.68 25.34 -8 25 C-8.66 24.67 -9.32 24.34 -10 24 Z M-20 25 C-20 25.33 -20 25.66 -20 26 C-17.03 26 -14.06 26 -11 26 C-11 25.67 -11 25.34 -11 25 C-13.97 25 -16.94 25 -20 25 Z M-7 32 C-7.33 32.66 -7.66 33.32 -8 34 C-7.34 34 -6.68 34 -6 34 C-6.33 33.34 -6.66 32.68 -7 32 Z M-19 33 C-19 34.98 -19 36.96 -19 39 C-18.67 39 -18.34 39 -18 39 C-18 37.02 -18 35.04 -18 33 C-18.33 33 -18.66 33 -19 33 Z M-20 40 C-20 41.98 -20 43.96 -20 46 C-19.34 45.34 -18.68 44.68 -18 44 C-18.66 42.68 -19.32 41.36 -20 40 Z " fill="#000000" transform="translate(40,8)"/>
<path d="M0 0 C0.66 0.165 0.66 0.165 4 1 C3.34 2.32 2.68 3.64 2 5 C1.01 4.34 0.02 3.68 -1 3 C-0.67 2.01 -0.34 1.02 0 0 Z " fill="#000000" transform="translate(75,8)"/>
<path d="M0 0 C0.402 0.01 0.402 0.01 2.438 0.062 C2.767 0.723 3.097 1.383 3.438 2.062 C2.5 4.188 2.5 4.188 1.438 6.062 C0.118 5.733 -1.203 5.402 -2.562 5.062 C-3.125 3.125 -3.125 3.125 -3.562 1.062 C-2.562 0.062 -2.562 0.062 0 0 Z M-2.562 1.062 C-2.562 1.723 -2.562 2.383 -2.562 3.062 C-1.903 3.062 -1.243 3.062 -0.562 3.062 C-0.562 2.402 -0.562 1.742 -0.562 1.062 C-1.222 1.062 -1.882 1.062 -2.562 1.062 Z " fill="#000000" transform="translate(70.5625,14.9375)"/>
<path d="M0 0 C1.32 0.66 2.64 1.32 4 2 C3.67 2.495 3.67 2.495 2 5 C1.34 5 0.68 5 0 5 C-0.33 5.99 -0.66 6.98 -1 8 C-2.32 7.67 -3.64 7.34 -5 7 C-4.34 5.68 -3.68 4.36 -3 3 C-2.34 3 -1.68 3 -1 3 C-0.67 2.01 -0.34 1.02 0 0 Z " fill="#000000" transform="translate(63,20)"/>
<path d="M0 0 C2.062 0.438 2.062 0.438 4 1 C3.67 1.66 3.34 2.32 3 3 C2.67 3 2.34 3 2 3 C1 5 1 5 1 7 C-0.626 8.707 -2.291 10.377 -4 12 C-4.66 11.67 -5.32 11.34 -6 11 C-6 9.35 -6 7.7 -6 6 C-5.01 5.67 -4.02 5.34 -3 5 C-1.875 3 -1.875 3 -1 1 C-0.67 0.67 -0.34 0.34 0 0 Z M-4 6 C-4.33 6.66 -4.66 7.32 -5 8 C-4.34 8 -3.68 8 -3 8 C-3.33 7.34 -3.66 6.68 -4 6 Z " fill="#000000" transform="translate(50,33)"/>
<path d="M0 0 C0.392 0.495 0.784 0.99 1.188 1.5 C3.551 3.456 5.014 3.242 8 3 C8 3.99 8 4.98 8 6 C4.7 5.67 1.4 5.34 -2 5 C-2 2 -2 2 0 0 Z " fill="#000000" transform="translate(55,36)"/>
<path d="M0 0 C0.66 0.165 0.66 0.165 4 1 C3.34 2.32 2.68 3.64 2 5 C1.01 4.34 0.02 3.68 -1 3 C-0.67 2.01 -0.34 1.02 0 0 Z " fill="#000000" transform="translate(39,44)"/>
<path d="M0 0 C3.187 1.403 5.322 3.078 7.75 5.562 C8.057 5.873 8.057 5.873 9.609 7.441 C11 9 11 9 11 10 C-0.522 9.036 -0.522 9.036 -6 8 C-6 7.01 -6 6.02 -6 5 C-5.34 5 -4.68 5 -4 5 C-3.67 4.01 -3.34 3.02 -3 2 C-2.01 1.34 -1.02 0.68 0 0 Z M5 6 C4.34 6.33 4.34 6.33 1 8 C2.98 8 4.96 8 7 8 C6.34 7.34 5.68 6.68 5 6 Z " fill="#000000" transform="translate(47,44)"/>
<path d="M0 0 C1 2 1 2 2 5 C2.99 5 3.98 5 5 5 C4.34 5.66 3.68 6.32 3 7 C0.938 6.812 0.938 6.812 -1 6 C-1.33 5.01 -1.66 4.02 -2 3 C-1.34 2.01 -0.68 1.02 0 0 Z " fill="#000000" transform="translate(31,49)"/>
<path d="M0 0 C0.99 1.32 1.98 2.64 3 4 C2.67 4.165 2.67 4.165 1 5 C0.67 5.66 0.34 6.32 0 7 C-0.99 6.34 -1.98 5.68 -3 5 C-2.67 4.01 -2.34 3.02 -2 2 C-1.34 2 -0.68 2 0 2 C0 1.34 0 0.68 0 0 Z " fill="#000000" transform="translate(27,56)"/>
<path d="M0 0 C2.312 1.375 2.312 1.375 4 3 C3.01 3 2.02 3 1 3 C0.67 4.65 0.34 6.3 0 8 C-1.65 7.67 -3.3 7.34 -5 7 C-5 5.35 -5 3.7 -5 2 C-2.75 0.812 -2.75 0.812 0 0 Z M-4 3 C-3.67 4.32 -3.34 5.64 -3 7 C-2.01 6.67 -1.02 6.34 0 6 C0 5.01 0 4.02 0 3 C-1.32 3 -2.64 3 -4 3 Z " fill="#000000" transform="translate(12,71)"/>
</svg>
